<svg aria-hidden="true" style="position: absolute; width: 0; height: 0; overflow: hidden;" version="1.1" xmlns="http://www.w3.org/2000/svg" xmlns:xlink="http://www.w3.org/1999/xlink">
<defs>
<symbol id="icon-instagram" viewbox="0 0 32 32">
<path d="M31.904 9.403c-0.078-1.703-0.348-2.866-0.744-3.884-0.402-1.068-1.032-2.035-1.845-2.834-0.799-0.814-1.766-1.444-2.834-1.846-1.018-0.395-2.181-0.666-3.884-0.743-1.706-0.078-2.251-0.097-6.597-0.097s-4.89 0.019-6.597 0.096c-1.703 0.078-2.866 0.348-3.884 0.744-1.068 0.402-2.035 1.032-2.834 1.845-0.814 0.799-1.444 1.766-1.846 2.834-0.395 1.018-0.666 2.181-0.743 3.884-0.078 1.707-0.097 2.251-0.097 6.597s0.019 4.891 0.097 6.597c0.078 1.703 0.348 2.866 0.744 3.884 0.402 1.067 1.032 2.035 1.845 2.834 0.799 0.814 1.766 1.444 2.834 1.845 1.018 0.396 2.181 0.666 3.884 0.744 1.707 0.078 2.251 0.096 6.597 0.096s4.89-0.018 6.597-0.096c1.703-0.078 2.866-0.348 3.884-0.744 2.149-0.831 3.848-2.53 4.679-4.679 0.396-1.018 0.666-2.181 0.744-3.884 0.078-1.707 0.096-2.251 0.096-6.597s-0.019-4.89-0.096-6.597zM29.024 22.466c-0.071 1.56-0.332 2.407-0.551 2.971-0.538 1.395-1.641 2.498-3.037 3.037-0.564 0.219-1.411 0.48-2.971 0.551-1.687 0.077-2.193 0.093-6.465 0.093s-4.779-0.016-6.466-0.093c-1.56-0.071-2.407-0.332-2.971-0.551-0.695-0.257-1.324-0.666-1.84-1.197-0.532-0.516-0.94-1.145-1.197-1.84-0.219-0.564-0.48-1.411-0.551-2.971-0.077-1.687-0.093-2.193-0.093-6.465s0.016-4.778 0.093-6.466c0.071-1.56 0.332-2.407 0.551-2.971 0.257-0.695 0.666-1.324 1.197-1.84 0.516-0.532 1.145-0.94 1.84-1.197 0.564-0.219 1.411-0.48 2.971-0.551 1.687-0.077 2.193-0.093 6.465-0.093h-0c4.272 0 4.778 0.016 6.466 0.094 1.56 0.071 2.407 0.332 2.971 0.551 0.695 0.257 1.323 0.666 1.84 1.197 0.532 0.516 0.94 1.145 1.197 1.84 0.219 0.564 0.48 1.411 0.551 2.971 0.077 1.687 0.093 2.193 0.093 6.465s-0.016 4.778-0.093 6.466z"></path>
<path d="M16 7.784c-4.538 0-8.216 3.679-8.216 8.216s3.678 8.216 8.216 8.216c4.538 0 8.216-3.678 8.216-8.216s-3.678-8.216-8.216-8.216zM16 21.333c-2.945-0-5.333-2.388-5.333-5.334s2.388-5.333 5.333-5.333c2.946 0 5.333 2.388 5.333 5.333s-2.388 5.334-5.334 5.334z"></path>
<path d="M26.461 7.459c0 1.060-0.86 1.92-1.92 1.92s-1.92-0.86-1.92-1.92c0-1.061 0.86-1.92 1.92-1.92s1.92 0.86 1.92 1.92z"></path>
</symbol>
<symbol id="icon-facebook" viewbox="0 0 32 32">
<path fill="#3b5998" style="fill: var(--color1, #3b5998)" d="M32 16c0 8.837-7.163 16-16 16s-16-7.163-16-16c0-8.837 7.163-16 16-16s16 7.163 16 16z"></path>
<path fill="#fff" style="fill: var(--color2, #fff)" d="M20.022 16.626h-2.855v10.459h-4.326v-10.459h-2.057v-3.676h2.057v-2.379c0-1.701 0.808-4.365 4.364-4.365l3.204 0.013v3.568h-2.325c-0.381 0-0.918 0.191-0.918 1.002v2.163h3.233l-0.378 3.672z"></path>
</symbol>
<symbol id="icon-twitter" viewbox="0 0 32 32">
<path fill="#03a9f4" style="fill: var(--color3, #03a9f4)" d="M32 6.078c-1.19 0.522-2.458 0.868-3.78 1.036 1.36-0.812 2.398-2.088 2.886-3.626-1.268 0.756-2.668 1.29-4.16 1.588-1.204-1.282-2.92-2.076-4.792-2.076-3.632 0-6.556 2.948-6.556 6.562 0 0.52 0.044 1.020 0.152 1.496-5.454-0.266-10.28-2.88-13.522-6.862-0.566 0.982-0.898 2.106-0.898 3.316 0 2.272 1.17 4.286 2.914 5.452-1.054-0.020-2.088-0.326-2.964-0.808 0 0.020 0 0.046 0 0.072 0 3.188 2.274 5.836 5.256 6.446-0.534 0.146-1.116 0.216-1.72 0.216-0.42 0-0.844-0.024-1.242-0.112 0.85 2.598 3.262 4.508 6.13 4.57-2.232 1.746-5.066 2.798-8.134 2.798-0.538 0-1.054-0.024-1.57-0.090 2.906 1.874 6.35 2.944 10.064 2.944 12.072 0 18.672-10 18.672-18.668 0-0.29-0.010-0.57-0.024-0.848 1.302-0.924 2.396-2.078 3.288-3.406z"></path>
</symbol>
</defs>
</svg>
