<svg aria-hidden="true" style="position: absolute; width: 0; height: 0; overflow: hidden;" version="1.1" xmlns="http://www.w3.org/2000/svg" xmlns:xlink="http://www.w3.org/1999/xlink">
<defs>
<symbol id="icon-close" viewBox="0 0 32 32">
<path d="M17.189 16l14.565-14.565c0.328-0.328 0.328-0.861 0-1.189s-0.861-0.328-1.189 0l-14.565 14.565-14.565-14.565c-0.328-0.328-0.861-0.328-1.189 0s-0.328 0.861 0 1.189l14.565 14.565-14.565 14.565c-0.328 0.328-0.328 0.861 0 1.189 0.164 0.164 0.379 0.246 0.595 0.246s0.43-0.082 0.595-0.246l14.565-14.565 14.565 14.565c0.164 0.164 0.379 0.246 0.595 0.246s0.43-0.082 0.595-0.246c0.328-0.328 0.328-0.861 0-1.189l-14.565-14.565z"></path>
</symbol>
</defs>
</svg>
